# xmcd
#
# Track frame offsets: 
#        150
#        12626
#        24247
#        46519
#        67315
#        92478
#        117031
#        131767
#        150933
#        165111
#
# Disc length: 2495 seconds
#
# Revision: 0
# Processed by: cddbd v1.5.2PL0 Copyright (c) Steve Scherf et al.
# Submitted via: ExactAudioCopyFreeDBPlugin 1.0
#
DISCID=6b09bd0a
DTITLE=B.B. King - Master Bluesman (Guitar Masters Series)
DYEAR=1900
DGENRE=Blues
TTITLE0=I'm Gonna Do What They Do To Me
TTITLE1=Paying The Cost To Be The Boss
TTITLE2=Confessin" The Blues
TTITLE3=No Good
TTITLE4=So Excited
TTITLE5=The Thrill Is Gone
TTITLE6=Get Off My Back, Woman
TTITLE7=I Want You So Bad
TTITLE8=Ask Me No Questions
TTITLE9=Chains and Things
EXTD=
EXTT0=
EXTT1=
EXTT2=
EXTT3=
EXTT4=
EXTT5=
EXTT6=
EXTT7=
EXTT8=
EXTT9=
PLAYORDER=
